<?xml version="1.0" encoding="utf-8"?>
<!-- Generator: Adobe Illustrator 15.0.0, SVG Export Plug-In . SVG Version: 6.00 Build 0)  -->
<!DOCTYPE svg PUBLIC "-//W3C//DTD SVG 1.1//EN" "http://www.w3.org/Graphics/SVG/1.1/DTD/svg11.dtd">
<svg version="1.1" id="Capa_1" xmlns="http://www.w3.org/2000/svg" xmlns:xlink="http://www.w3.org/1999/xlink" x="0px" y="0px"
	 width="841.89px" height="1190.551px" viewBox="0 0 841.89 1190.551" enable-background="new 0 0 841.89 1190.551"
	 xml:space="preserve">
<g>
	<g>
		<path fill="#222A55" stroke="#222A55" stroke-width="4" d="M767.896,299.299H73.994C33.112,299.299,0,332.615,0,373.293v443.965
			c0,40.919,33.355,73.994,73.994,73.994h693.902c40.541,0,73.994-32.936,73.994-73.994V373.293
			C841.89,332.687,808.91,299.299,767.896,299.299z M757.533,348.628c-15.117,15.037-275.283,273.833-284.266,282.769
			c-13.977,13.977-32.557,21.672-52.323,21.672c-19.765,0-38.345-7.697-52.367-21.719c-6.042-6.01-263.336-261.947-284.221-282.722
			H757.533z M49.33,807.218V383.364l213.166,212.043L49.33,807.218z M84.388,841.923L297.47,630.195l36.272,36.082
			c23.293,23.293,54.262,36.12,87.202,36.12c32.942,0,63.911-12.827,87.157-36.074l36.318-36.128l213.082,211.728H84.388z
			 M792.56,807.218L579.394,595.407L792.56,383.364V807.218z"/>
	</g>
</g>
</svg>
