<?xml version="1.0" encoding="utf-8"?>
<!-- Generator: Adobe Illustrator 24.3.0, SVG Export Plug-In . SVG Version: 6.00 Build 0)  -->
<svg version="1.1" id="Capa_1" xmlns="http://www.w3.org/2000/svg" xmlns:xlink="http://www.w3.org/1999/xlink" x="0px" y="0px"
	 viewBox="0 0 841.9 1190.6" style="enable-background:new 0 0 841.9 1190.6;" xml:space="preserve">
<style type="text/css">
	.st0{stroke:#222A55;stroke-width:4;}
</style>
<g>
	<g>
		<path class="st0" d="M767.9,299.3H74c-40.9,0-74,33.3-74,74v444c0,40.9,33.4,74,74,74h693.9c40.5,0,74-32.9,74-74v-444
			C841.9,332.7,808.9,299.3,767.9,299.3z M757.5,348.6c-15.1,15-275.3,273.8-284.3,282.8c-14,14-32.6,21.7-52.3,21.7
			c-19.8,0-38.3-7.7-52.4-21.7c-6-6-263.3-261.9-284.2-282.7H757.5z M49.3,807.2V383.4l213.2,212L49.3,807.2z M84.4,841.9
			l213.1-211.7l36.3,36.1c23.3,23.3,54.3,36.1,87.2,36.1c32.9,0,63.9-12.8,87.2-36.1l36.3-36.1l213.1,211.7H84.4z M792.6,807.2
			L579.4,595.4l213.2-212V807.2z"/>
	</g>
</g>
</svg>
