<?xml version="1.0" encoding="utf-8"?>
<!-- Generator: Adobe Illustrator 24.3.0, SVG Export Plug-In . SVG Version: 6.00 Build 0)  -->
<svg version="1.1" id="Capa_1" xmlns="http://www.w3.org/2000/svg" xmlns:xlink="http://www.w3.org/1999/xlink" x="0px" y="0px"
	 viewBox="0 0 841.4 841.4" style="enable-background:new 0 0 841.4 841.4;" xml:space="preserve">
<style type="text/css">
	.st0{fill-rule:evenodd;clip-rule:evenodd;fill:#FFFFFF;}
	.st1{fill-rule:evenodd;clip-rule:evenodd;}
	.st2{fill-rule:evenodd;clip-rule:evenodd;fill:#020202;}
</style>
<g>
	<path class="st0" d="M184.2,0C87.6,26.2,26.2,87.6,0,184.2C0,122.8,0,61.4,0,0C61.4,0,122.8,0,184.2,0z"/>
	<path class="st1" d="M184.2,0c157.7,0,315.3,0,473,0c96.6,26.2,158,87.6,184.2,184.2c0,157.7,0,315.3,0,473
		c-26.2,96.6-87.6,158-184.2,184.2c-157.7,0-315.3,0-473,0C87.6,815.2,26.2,753.8,0,657.2c0-157.7,0-315.3,0-473
		C26.2,87.6,87.6,26.2,184.2,0z M99.6,149.4c-40.7,66.8-41.4,460.4-5,532.7c49.1,97.5,195.7,84.6,318.7,84.6
		c79.1,0,195.1,12.1,258.9-14.9c107.2-45.5,94.6-176.9,94.6-338.6c0-142.7,10.9-270.5-84.6-318.7C612.3,59.5,356.3,63.1,229,79.7
		C165.3,88,124.5,108.4,99.6,149.4z"/>
	<path class="st0" d="M657.2,0C718.6,0,780,0,841.4,0c0,61.4,0,122.8,0,184.2C815.2,87.6,753.8,26.2,657.2,0z"/>
	<path class="st0" d="M229,79.7c127.3-16.6,383.3-20.2,453.1,14.9c95.5,48.1,84.6,176,84.6,318.7c0,161.6,12.6,293.1-94.6,338.6
		c-63.8,27.1-179.8,14.9-258.9,14.9c-123,0-269.6,12.9-318.7-84.6c-36.5-72.4-35.7-465.9,5-532.7C124.5,108.4,165.3,88,229,79.7z
		 M647.3,253.9c46.6-0.1,74.6-57.1,39.8-104.6C580.9,94.9,556.6,254.1,647.3,253.9z M199.2,423.2c3.2,284.4,446.3,275.3,443.1-5
		c-1.6-137.4-115.9-216.9-224.1-214.1C283.2,207.7,197.9,308.4,199.2,423.2z"/>
	<path class="st1" d="M687.1,149.4c34.8,47.5,6.7,104.5-39.8,104.6C556.6,254.1,580.9,94.9,687.1,149.4z"/>
	<path class="st2" d="M418.2,204.1c108.1-2.8,222.5,76.7,224.1,214.1c3.2,280.3-439.9,289.3-443.1,5
		C197.9,308.4,283.2,207.7,418.2,204.1z M288.8,368.4C217.8,565.9,499.6,620.6,552.7,473c35.8-99.6-37.5-196.2-139.4-189.2
		C333.2,289.3,300.1,336.9,288.8,368.4z"/>
	<path class="st0" d="M413.3,283.8c101.9-7,175.2,89.6,139.4,189.2c-53,147.6-334.8,92.9-263.9-104.6
		C300.1,336.9,333.2,289.3,413.3,283.8z"/>
	<path class="st0" d="M0,657.2c26.2,96.6,87.6,158,184.2,184.2c-61.4,0-122.8,0-184.2,0C0,780,0,718.6,0,657.2z"/>
	<path class="st0" d="M841.4,657.2c0,61.4,0,122.8,0,184.2c-61.4,0-122.8,0-184.2,0C753.8,815.2,815.2,753.8,841.4,657.2z"/>
</g>
</svg>
