<?xml version="1.0" encoding="utf-8"?>
<!-- Generator: Adobe Illustrator 15.0.0, SVG Export Plug-In . SVG Version: 6.00 Build 0)  -->
<!DOCTYPE svg PUBLIC "-//W3C//DTD SVG 1.1//EN" "http://www.w3.org/Graphics/SVG/1.1/DTD/svg11.dtd">
<svg version="1.1" id="Capa_1" xmlns="http://www.w3.org/2000/svg" xmlns:xlink="http://www.w3.org/1999/xlink" x="0px" y="0px"
	 width="841.445px" height="841.445px" viewBox="0 199.331 841.445 841.445" enable-background="new 0 199.331 841.445 841.445"
	 xml:space="preserve">
<g>
	<path fill-rule="evenodd" clip-rule="evenodd" fill="#FFFFFF" d="M184.221,199.331C87.613,225.538,26.208,286.944,0,383.552
		c0-61.408,0-122.813,0-184.221C61.408,199.331,122.813,199.331,184.221,199.331z"/>
	<path fill-rule="evenodd" clip-rule="evenodd" fill="#222A55" d="M184.221,199.331c157.667,0,315.333,0,473.002,0
		c96.607,26.208,158.014,87.613,184.222,184.221c0,157.665,0,315.333,0,473.002c-26.208,96.607-87.614,158.013-184.222,184.222
		c-157.669,0-315.335,0-473.002,0C87.613,1014.567,26.208,953.161,0,856.554c0-157.669,0-315.337,0-473.002
		C26.208,286.944,87.613,225.538,184.221,199.331z M99.58,348.699c-40.67,66.824-41.435,460.35-4.979,532.749
		c49.099,97.513,195.694,84.643,318.653,84.643c79.07,0,195.08,12.131,258.907-14.937c107.192-45.458,94.6-176.929,94.6-338.569
		c0-142.689,10.905-270.545-84.643-318.655c-69.793-35.142-325.796-31.526-453.085-14.936
		C165.288,287.304,124.511,307.738,99.58,348.699z"/>
	<path fill-rule="evenodd" clip-rule="evenodd" fill="#FFFFFF" d="M657.223,199.331c61.405,0,122.816,0,184.222,0
		c0,61.408,0,122.813,0,184.221C815.237,286.944,753.831,225.538,657.223,199.331z"/>
	<path fill-rule="evenodd" clip-rule="evenodd" fill="#FFFFFF" d="M229.033,278.994c127.289-16.59,383.292-20.206,453.085,14.936
		c95.548,48.11,84.643,175.966,84.643,318.655c0,161.641,12.593,293.111-94.6,338.569c-63.827,27.067-179.837,14.937-258.907,14.937
		c-122.959,0-269.555,12.87-318.653-84.643c-36.456-72.399-35.691-465.925,4.979-532.749
		C124.511,307.738,165.288,287.304,229.033,278.994z M647.265,453.258c46.571-0.068,74.617-57.06,39.832-104.559
		C580.875,294.274,556.56,453.389,647.265,453.258z M199.158,622.542c3.224,284.355,446.308,275.272,443.128-4.979
		c-1.562-137.429-115.917-216.945-224.054-214.096C283.213,407.025,197.855,507.681,199.158,622.542z"/>
	<path fill-rule="evenodd" clip-rule="evenodd" fill="#222A55" d="M687.097,348.699c34.785,47.499,6.739,104.49-39.832,104.559
		C556.56,453.389,580.875,294.274,687.097,348.699z"/>
	<path fill-rule="evenodd" clip-rule="evenodd" fill="#222A55" d="M418.233,403.468c108.137-2.849,222.492,76.667,224.054,214.096
		c3.18,280.251-439.905,289.334-443.128,4.979C197.855,507.681,283.213,407.025,418.233,403.468z M288.78,567.774
		C217.837,765.25,499.637,819.936,552.665,672.332c35.786-99.618-37.497-196.198-139.411-189.201
		C333.216,488.629,300.118,536.213,288.78,567.774z"/>
	<path fill-rule="evenodd" clip-rule="evenodd" fill="#FFFFFF" d="M413.254,483.132c101.914-6.997,175.197,89.583,139.411,189.201
		C499.637,819.936,217.837,765.25,288.78,567.774C300.118,536.213,333.216,488.629,413.254,483.132z"/>
	<path fill-rule="evenodd" clip-rule="evenodd" fill="#FFFFFF" d="M0,856.554c26.208,96.607,87.613,158.013,184.221,184.222
		c-61.408,0-122.813,0-184.221,0C0,979.37,0,917.959,0,856.554z"/>
	<path fill-rule="evenodd" clip-rule="evenodd" fill="#FFFFFF" d="M841.445,856.554c0,61.405,0,122.816,0,184.222
		c-61.405,0-122.816,0-184.222,0C753.831,1014.567,815.237,953.161,841.445,856.554z"/>
</g>
</svg>
